<svg width="25" height="24" viewBox="0 0 25 24" fill="none" xmlns="http://www.w3.org/2000/svg">
<path d="M13.593 18.28V20.38H22.98L18.971 16.371L19.671 12.389V12.289C19.187 10.849 17.571 6.094 16.888 5.443C15.729 4.68071 14.4874 4.05205 13.187 3.569L12.98 3.5L12.81 3.569C11.5099 4.05217 10.2687 4.68083 9.10998 5.443C8.41998 6.094 6.21998 11.291 5.78998 12.323L5.72698 12.462L6.96198 16.401L2.97998 20.383H11.866V18.53L8.99298 16.812L8.55098 17.551L10.999 19.003V19.51H5.07398L7.86898 16.387L6.65398 12.266C7.49181 10.0501 8.48425 7.89581 9.62398 5.819C10.5961 5.16663 11.6383 4.62525 12.731 4.205V10.304L16.063 9.436C16.696 10.286 17.233 11.202 17.663 12.169L16.076 16.594L13.593 18.28Z" fill="#F7F7F7"/>
</svg>
