<svg width="26" height="25" viewBox="0 0 26 25" fill="none" xmlns="http://www.w3.org/2000/svg">
<g clip-path="url(#clip0_3_484)">
<path d="M0 2.02779C0 1.42744 0.482986 0.944458 1.08333 0.944458H3.13715C4.13021 0.944458 5.01042 1.52224 5.42118 2.3889H23.9733C25.1604 2.3889 26.0271 3.51737 25.7156 4.6639L23.8649 11.5386C23.4813 12.9559 22.1948 13.9445 20.7278 13.9445H7.70521L7.94896 15.2309C8.04826 15.741 8.49514 16.1111 9.01424 16.1111H22.0278C22.6281 16.1111 23.1111 16.5941 23.1111 17.1945C23.1111 17.7948 22.6281 18.2778 22.0278 18.2778H9.01424C7.45243 18.2778 6.11181 17.1674 5.82292 15.6372L3.49375 3.40453C3.46215 3.233 3.31319 3.11112 3.13715 3.11112H1.08333C0.482986 3.11112 0 2.62814 0 2.02779ZM5.77778 21.8889C5.77778 21.6044 5.83382 21.3226 5.94271 21.0598C6.05159 20.7969 6.21119 20.558 6.41238 20.3568C6.61357 20.1556 6.85242 19.996 7.1153 19.8872C7.37817 19.7783 7.65991 19.7222 7.94444 19.7222C8.22898 19.7222 8.51072 19.7783 8.77359 19.8872C9.03646 19.996 9.27532 20.1556 9.47651 20.3568C9.6777 20.558 9.8373 20.7969 9.94618 21.0598C10.0551 21.3226 10.1111 21.6044 10.1111 21.8889C10.1111 22.1734 10.0551 22.4552 9.94618 22.7181C9.8373 22.9809 9.6777 23.2198 9.47651 23.421C9.27532 23.6222 9.03646 23.7818 8.77359 23.8906C8.51072 23.9995 8.22898 24.0556 7.94444 24.0556C7.65991 24.0556 7.37817 23.9995 7.1153 23.8906C6.85242 23.7818 6.61357 23.6222 6.41238 23.421C6.21119 23.2198 6.05159 22.9809 5.94271 22.7181C5.83382 22.4552 5.77778 22.1734 5.77778 21.8889ZM20.9444 19.7222C21.5191 19.7222 22.0702 19.9505 22.4765 20.3568C22.8828 20.7632 23.1111 21.3143 23.1111 21.8889C23.1111 22.4635 22.8828 23.0146 22.4765 23.421C22.0702 23.8273 21.5191 24.0556 20.9444 24.0556C20.3698 24.0556 19.8187 23.8273 19.4124 23.421C19.0061 23.0146 18.7778 22.4635 18.7778 21.8889C18.7778 21.3143 19.0061 20.7632 19.4124 20.3568C19.8187 19.9505 20.3698 19.7222 20.9444 19.7222ZM11.375 8.16668C11.375 8.66321 11.7812 9.06946 12.2778 9.06946H14.2639V11.0556C14.2639 11.5521 14.6701 11.9583 15.1667 11.9583C15.6632 11.9583 16.0694 11.5521 16.0694 11.0556V9.06946H18.0556C18.5521 9.06946 18.9583 8.66321 18.9583 8.16668C18.9583 7.67015 18.5521 7.2639 18.0556 7.2639H16.0694V5.27779C16.0694 4.78126 15.6632 4.37501 15.1667 4.37501C14.6701 4.37501 14.2639 4.78126 14.2639 5.27779V7.2639H12.2778C11.7812 7.2639 11.375 7.67015 11.375 8.16668Z" fill="black"/>
</g>
<defs>
<clipPath id="clip0_3_484">
<rect width="26" height="23.1111" fill="white" transform="translate(0 0.944458)"/>
</clipPath>
</defs>
</svg>
