<svg width="25" height="26" viewBox="0 0 25 26" fill="none" xmlns="http://www.w3.org/2000/svg">
<mask id="mask0_5_1228" style="mask-type:luminance" maskUnits="userSpaceOnUse" x="0" y="1" width="25" height="24">
<path d="M0.97998 1H24.98V25H0.97998V1Z" fill="white"/>
</mask>
<g mask="url(#mask0_5_1228)">
<path fill-rule="evenodd" clip-rule="evenodd" d="M17.025 17.645C15.5604 18.9261 13.6553 19.5879 11.7119 19.4906C9.76853 19.3933 7.93903 18.5445 6.60978 17.1235C5.28052 15.7025 4.55557 13.8205 4.58802 11.8749C4.62047 9.92939 5.40777 8.0726 6.78368 6.6967C8.15958 5.3208 10.0164 4.53349 11.9619 4.50104C13.9075 4.4686 15.7895 5.19355 17.2105 6.5228C18.6315 7.85206 19.4803 9.68155 19.5776 11.6249C19.6749 13.5683 19.0131 15.4735 17.732 16.938L21.986 21.192L21.279 21.899L17.025 17.645ZM16.683 16.596C17.9019 15.3769 18.5867 13.7236 18.5866 11.9997C18.5865 10.2757 17.9016 8.62244 16.6825 7.40351C15.4634 6.18457 13.8101 5.49983 12.0861 5.49993C10.3622 5.50002 8.70892 6.18494 7.48998 7.40401C6.27105 8.62307 5.58631 10.2764 5.5864 12.0004C5.5865 13.7243 6.27141 15.3776 7.49048 16.5965C8.70955 17.8154 10.3629 18.5002 12.0868 18.5001C13.8108 18.5 15.464 17.8151 16.683 16.596Z" fill="white" stroke="white" stroke-width="0.4"/>
</g>
</svg>
