<svg width="98" height="26" viewBox="0 0 98 26" fill="none" xmlns="http://www.w3.org/2000/svg">
<path d="M57.2346 20.1398L57.2434 16.3753H70.5665C70.7888 16.3611 71.0056 16.3 71.2026 16.1959C71.28 16.1228 71.3419 16.0351 71.385 15.9378C71.4281 15.8405 71.4514 15.7356 71.4535 15.6293C71.4535 14.9068 70.8527 14.8754 70.5508 14.8597L60.865 14.0607C60.0653 13.9203 59.3181 13.5671 58.7019 13.0382C58.0767 12.5229 57.6389 11.8159 57.4561 11.0266C57.4561 11.0266 69.9686 11.7579 71.3585 11.8863C72.2121 12.0118 73.0077 12.3927 73.6407 12.9791C74.2736 13.5655 74.7143 14.3298 74.9046 15.1714C74.964 15.6833 74.9568 16.2006 74.8831 16.7106C74.7194 17.6457 74.2402 18.4963 73.5253 19.1208C72.8104 19.7452 71.9031 20.1055 70.9547 20.1418L57.2346 20.1398ZM44.7211 20.1231L44.3741 20.0986C43.4874 19.983 42.6621 19.5828 42.0222 18.9581C41.3822 18.3334 40.9621 17.5179 40.825 16.6341V16.0371C40.812 16.2527 40.7868 16.4674 40.7495 16.6802C40.6049 17.5409 40.1944 18.3348 39.5756 18.9502C38.9568 19.5656 38.1608 19.9717 37.2994 20.1114H19.3628V10.504L23.0873 10.7746V16.3998H36.5035C36.6033 16.405 36.7031 16.3902 36.7971 16.3564C36.891 16.3225 36.9774 16.2703 37.051 16.2028C37.1246 16.1353 37.184 16.0538 37.2259 15.9631C37.2677 15.8724 37.291 15.7742 37.2945 15.6744C37.3014 14.9509 36.7437 14.8764 36.4477 14.8626C36.4477 14.8626 27.1912 14.1039 26.8599 14.0725C26.0358 13.9193 25.2649 13.5567 24.6212 13.0196C23.9962 12.4314 23.5827 11.6533 23.4451 10.806C23.4451 10.806 35.887 11.7863 37.2837 11.9128C39.6282 12.1295 40.7084 14.6117 40.8025 15.1744C40.8025 15.1744 40.8103 15.2322 40.8172 15.3352V9.93055L44.6211 10.2031V15.1813C44.6091 15.4903 44.7162 15.7921 44.9203 16.0243C45.1244 16.2566 45.4099 16.4016 45.7179 16.4292H52.1868C52.3515 16.4296 52.5146 16.3972 52.6667 16.3338C52.8187 16.2704 52.9565 16.1774 53.0721 16.0601C53.1878 15.9428 53.2789 15.8036 53.3401 15.6507C53.4013 15.4978 53.4314 15.3342 53.4287 15.1695V10.7972L57.1954 11.0197V16.2724C57.1954 19.8281 53.4542 20.1261 53.4542 20.1261L44.7211 20.1231ZM6.37976 20.1055L12.9791 9.88644L17.2339 10.3354L10.8904 20.1055H6.37976ZM57.2346 9.65703V9.35215C57.4154 8.64036 57.74 7.97312 58.1883 7.39147C58.5648 6.9344 59.034 6.56245 59.5648 6.30017C60.0957 6.0379 60.6762 5.89127 61.2679 5.86998H74.9899V9.65998L57.2346 9.65703ZM53.3758 9.65703V5.88861H57.2071V9.65703H53.3758ZM40.7868 9.65703V5.88861H44.6211V9.65703H40.7868ZM13.131 9.65703C13.131 9.65703 14.6884 7.11795 15.0746 6.61798C15.2264 6.39404 15.431 6.2109 15.6703 6.08473C15.9096 5.95856 16.1763 5.89322 16.4468 5.89449H23.2549V9.35215C23.4372 8.64014 23.7631 7.97292 24.2125 7.39147C24.5878 6.93295 25.0565 6.55973 25.5874 6.29669C26.1182 6.03365 26.6991 5.88685 27.2912 5.86606H40.1173V9.65311L13.131 9.65703Z" fill="#797979"/>
</svg>
