<svg width="160" height="30" viewBox="0 0 160 30" fill="none" xmlns="http://www.w3.org/2000/svg">
<path d="M17.773 23.2721C18.4129 23.672 19.0528 24.0719 19.6926 24.3918C26.5712 27.4307 36.7291 29.2701 38.6487 28.6303C44.0075 26.8709 50.0063 15.5947 51.8459 10.3965C51.8459 10.3965 46.2471 12.6357 40.5683 15.2748C35.8492 17.5141 30.6503 20.0732 30.6503 20.0732L43.8476 16.0746C43.8476 16.0746 40.3283 24.3918 35.6893 25.3514C31.0503 26.3111 22.892 23.0322 22.892 23.0322C23.5318 22.4724 32.17 16.1545 52.3258 7.91732C53.2056 7.27754 53.7655 6.23789 53.9255 5.19824C49.2864 5.67808 44.8074 7.03762 40.5683 9.03694C32.09 13.0356 17.773 23.2721 17.773 23.2721ZM3.05612 19.1935C4.49582 21.0329 10.4146 22.5524 11.2144 22.7123C7.53518 20.1532 0.0167542 13.1156 0.0167542 13.1156C0.816587 15.2748 1.85637 17.2742 3.05612 19.1935Z" fill="#FF1929"/>
<path d="M20.4925 18.3138C24.4117 15.4348 38.3287 3.67879 51.7659 0.479873C51.7659 0.479873 44.7274 -0.639748 34.7295 2.4792C31.1302 3.59882 25.9313 8.63712 16.2534 17.994C14.9736 18.7137 10.2546 15.9946 7.53519 14.7151C7.53519 14.7151 12.0142 21.8327 13.6139 23.912C16.0134 27.1908 20.4125 29.1102 20.4125 29.1102C20.0126 28.7103 16.9732 25.5114 16.0934 23.672C15.5335 22.7923 16.1734 21.5128 20.4925 18.3138ZM102.315 5.4382H99.9158V12.5558H95.4368V5.4382H93.0373V13.7554H102.315V5.4382ZM122.311 12.4758H116.312V5.4382H113.833V13.7554H121.191L122.311 12.4758ZM123.351 5.4382H125.83V13.7554H123.351V5.4382ZM153.345 6.63779H158.863L159.983 5.4382H150.865V13.7554H153.345V9.67677H158.704L159.663 8.3972H153.345V6.63779ZM85.2789 11.0363H91.9175V6.07798C91.9175 5.75809 91.6776 5.4382 91.3576 5.4382H82.7994V13.6754H85.2789V11.0363ZM85.2789 6.63779H89.2781C89.358 6.63779 89.518 6.63779 89.518 7.03766V9.83671H85.2789V6.63779ZM112.553 8.63712H111.833V6.23793C111.833 5.75809 111.593 5.4382 111.193 5.4382H103.435V13.7554H112.473L112.553 8.63712ZM110.074 12.4758H105.915V9.83671H110.074V12.4758ZM110.074 8.63712H105.915V6.63779H109.834C110.074 6.63779 110.074 6.95768 110.074 7.03766V8.63712ZM80.3999 6.63779L81.6796 5.4382H72.4016V13.6754H81.6796L80.3999 12.4758H74.8811V10.2366H81.1198V8.87704H74.8811V6.63779H80.3999ZM129.59 6.63779H135.188L136.388 5.4382H127.11V13.6754H135.188L136.388 12.4758H129.59V6.63779ZM123.191 19.5934L124.231 18.3938H114.793V22.8723H121.591V25.3515H114.473L115.992 26.631H124.151V21.5927H117.272V19.5934H123.191ZM80.4799 18.3938H71.6817V26.631H74.1612V23.1122H78.5603V26.631H81.0398V19.1136C81.1198 18.7937 80.8798 18.4738 80.4799 18.3938ZM78.5603 21.9126H74.2412V19.5934H78.3204C78.5603 19.5934 78.5603 19.8333 78.5603 19.9933V21.9126ZM101.755 19.5934L103.035 18.3938H93.6771V26.631H103.035L101.755 25.4314H96.1566V23.1922H102.475V21.8327H96.1566V19.5934H101.755ZM69.1223 19.6734L70.402 18.3938H60.6441V26.631H70.0821V22.1525H67.6026V25.4314H63.2035V19.6734H69.1223ZM82.3995 18.3938V26.711H84.959V21.9126L87.3585 23.5921L89.8379 21.9126V26.711H92.3174V18.3938L87.3585 21.6727L82.3995 18.3938ZM113.433 23.1122V19.1136C113.433 18.7137 113.193 18.3138 112.793 18.3138H103.835V26.631H106.314V19.5934H110.634C110.874 19.5934 110.874 19.8333 110.874 19.9933V21.5927H106.794L111.273 26.631H114.233L111.113 23.1122H113.433ZM70.9619 11.2762V6.23793C70.9619 5.83806 70.9619 5.4382 70.482 5.4382H60.6441V11.1963L63.2035 13.9953V6.63779H68.0025C68.3224 6.63779 68.4024 6.71777 68.4024 7.03766V9.67677H64.1633L70.9619 16.7944V13.9953L68.4024 11.1963H70.9619V11.2762ZM148.866 5.4382H140.467V11.4362L142.467 13.7554H149.425V6.07798C149.425 5.75809 149.186 5.4382 148.866 5.4382ZM146.946 12.4758H144.307L142.947 10.8764V6.63779H146.946V12.4758Z" fill="#FF1929"/>
</svg>
